<?xml version="1.0" encoding="iso-8859-1"?>
<!-- Generator: Adobe Illustrator 16.0.3, SVG Export Plug-In . SVG Version: 6.00 Build 0)  -->
<!DOCTYPE svg PUBLIC "-//W3C//DTD SVG 1.1//EN" "http://www.w3.org/Graphics/SVG/1.1/DTD/svg11.dtd">
<svg version="1.1" xmlns="http://www.w3.org/2000/svg" xmlns:xlink="http://www.w3.org/1999/xlink" x="0px" y="0px"
	 width="595.28px" height="841.89px" viewBox="0 0 595.28 841.89" style="enable-background:new 0 0 595.28 841.89;"
	 xml:space="preserve">
<g id="ph">
	<rect id="placeholder" x="25.937" y="25.937" style="fill:#FFFFFF;" width="543.401" height="790.016"/>
</g>
<g id="papermarker">
	<g>
		<path d="M25.937,17.008c-4.932,0-8.929,3.998-8.929,8.929c0,4.931,3.998,8.929,8.929,8.929c4.931,0,8.929-3.998,8.929-8.929
			C34.866,21.005,30.868,17.008,25.937,17.008z M25.937,32.882c-3.835,0-6.945-3.109-6.945-6.945s3.109-6.945,6.945-6.945
			s6.945,3.109,6.945,6.945S29.772,32.882,25.937,32.882z"/>
		<path d="M25.937,20.977c-2.74,0-4.96,2.221-4.96,4.96s2.221,4.96,4.96,4.96s4.96-2.221,4.96-4.96S28.677,20.977,25.937,20.977z
			 M25.937,28.914c-1.644,0-2.977-1.333-2.977-2.977s1.333-2.977,2.977-2.977s2.977,1.333,2.977,2.977S27.581,28.914,25.937,28.914z
			"/>
		<circle cx="25.937" cy="25.937" r="0.992"/>
	</g>
	<g>
		<path d="M569.338,17.008c-4.932,0-8.93,3.998-8.93,8.929c0,4.931,3.998,8.929,8.93,8.929s8.93-3.998,8.93-8.929
			C578.268,21.005,574.27,17.008,569.338,17.008z M569.338,32.882c-3.836,0-6.945-3.109-6.945-6.945s3.109-6.945,6.945-6.945
			s6.945,3.109,6.945,6.945S573.174,32.882,569.338,32.882z"/>
		<path d="M569.338,20.977c-2.74,0-4.961,2.221-4.961,4.96s2.221,4.96,4.961,4.96s4.961-2.221,4.961-4.96
			S572.078,20.977,569.338,20.977z M569.338,28.914c-1.644,0-2.977-1.333-2.977-2.977s1.333-2.977,2.977-2.977
			s2.977,1.333,2.977,2.977S570.981,28.914,569.338,28.914z"/>
		<circle cx="569.338" cy="25.937" r="0.992"/>
	</g>
	<g>
		<path d="M569.338,807.024c-4.932,0-8.93,3.997-8.93,8.929c0,4.931,3.998,8.929,8.93,8.929s8.93-3.998,8.93-8.929
			C578.268,811.021,574.27,807.024,569.338,807.024z M569.338,822.897c-3.836,0-6.945-3.109-6.945-6.944s3.109-6.944,6.945-6.944
			s6.945,3.109,6.945,6.944S573.174,822.897,569.338,822.897z"/>
		<path d="M569.338,810.993c-2.74,0-4.961,2.221-4.961,4.96s2.221,4.96,4.961,4.96s4.961-2.221,4.961-4.96
			S572.078,810.993,569.338,810.993z M569.338,818.93c-1.644,0-2.977-1.333-2.977-2.977s1.333-2.977,2.977-2.977
			s2.977,1.333,2.977,2.977S570.981,818.93,569.338,818.93z"/>
		<circle cx="569.338" cy="815.953" r="0.992"/>
	</g>
	<g>
		<path d="M25.938,807.024c-4.932,0-8.93,3.997-8.93,8.929c0,4.931,3.998,8.929,8.93,8.929s8.93-3.998,8.93-8.929
			C34.867,811.021,30.869,807.024,25.938,807.024z M25.938,822.897c-3.836,0-6.945-3.109-6.945-6.944s3.109-6.944,6.945-6.944
			s6.945,3.109,6.945,6.944S29.773,822.897,25.938,822.897z"/>
		<path d="M25.938,810.993c-2.74,0-4.961,2.221-4.961,4.96s2.221,4.96,4.961,4.96s4.961-2.221,4.961-4.96
			S28.678,810.993,25.938,810.993z M25.938,818.93c-1.644,0-2.977-1.333-2.977-2.977s1.333-2.977,2.977-2.977
			s2.977,1.333,2.977,2.977S27.581,818.93,25.938,818.93z"/>
		<circle cx="25.938" cy="815.953" r="0.992"/>
	</g>
</g>
</svg>
